<?xml version="1.0" standalone="no"?>
<!DOCTYPE svg PUBLIC "-//W3C//DTD SVG 20010904//EN"
 "http://www.w3.org/TR/2001/REC-SVG-20010904/DTD/svg10.dtd">
<svg version="1.0" xmlns="http://www.w3.org/2000/svg"
 width="300.000000pt" height="300.000000pt" viewBox="0 0 300.000000 300.000000"
 preserveAspectRatio="xMidYMid meet">
<metadata>
Created by potrace 1.10, written by Peter Selinger 2001-2011
</metadata>
<g transform="translate(0.000000,300.000000) scale(0.100000,-0.100000)"
fill="#000000" stroke="none">
<path d="M1400 2917 c-3 -3 -27 -8 -55 -11 -96 -11 -170 -24 -195 -34 -38 -16
-1 -15 78 2 179 38 372 36 577 -8 123 -26 131 -27 60 -2 -38 14 -113 30 -165
36 -112 14 -293 24 -300 17z"/>
<path d="M1075 2850 c-20 -9 -20 -9 0 -9 11 0 27 4 35 9 13 9 13 10 0 9 -8 0
-24 -4 -35 -9z"/>
<path d="M983 2822 c-24 -9 -43 -20 -43 -25 0 -5 6 -6 13 -3 6 2 31 10 55 17
23 6 42 15 42 20 0 12 -17 10 -67 -9z"/>
<path d="M1955 2831 c47 -22 81 -34 88 -33 4 1 7 -2 7 -6 0 -4 23 -16 51 -27
61 -24 86 -54 69 -84 -13 -25 -40 -27 -86 -5 -19 9 -37 14 -40 11 -8 -8 71
-47 94 -47 28 0 54 34 50 67 -3 25 -15 34 -98 75 -52 26 -108 49 -125 53 -23
4 -26 3 -10 -4z"/>
<path d="M1363 2808 c-2 -5 60 -8 138 -8 78 0 140 2 137 5 -8 8 -270 11 -275
3z"/>
<path d="M1307 2804 c-1 -2 -20 -5 -42 -8 -73 -11 -145 -30 -145 -39 0 -4 -4
-6 -8 -3 -5 3 -20 -1 -35 -9 -14 -7 -40 -16 -58 -20 -36 -8 -72 -35 -47 -35 8
0 18 4 23 8 22 19 176 66 273 83 40 7 75 16 78 20 4 7 -33 9 -39 3z"/>
<path d="M1650 2801 c0 -9 92 -23 99 -15 8 7 -3 11 -51 17 -27 4 -48 3 -48 -2z"/>
<path d="M830 2748 c-52 -28 -129 -76 -170 -107 -92 -67 -251 -228 -305 -307
-22 -32 -42 -61 -45 -64 -10 -10 -51 -86 -84 -155 -57 -119 -50 -126 8 -10 30
61 86 152 123 204 68 95 208 251 224 251 5 0 17 8 27 18 32 30 69 60 99 79 15
10 33 23 40 29 6 6 49 30 95 54 92 48 93 48 87 54 -3 3 -47 -18 -99 -46z"/>
<path d="M1763 2783 c8 -13 133 -46 149 -40 7 3 4 6 -8 6 -11 1 -34 7 -50 15
-39 19 -98 31 -91 19z"/>
<path d="M1936 2732 c-3 -6 7 -13 24 -17 16 -4 32 -11 35 -16 10 -15 35 -10
29 6 -4 8 -18 15 -33 15 -15 0 -32 5 -38 11 -7 7 -13 7 -17 1z"/>
<path d="M863 2650 c-40 -21 -99 -59 -130 -82 -31 -24 -62 -46 -67 -50 -6 -4
-8 -10 -4 -13 3 -3 39 19 79 50 41 30 89 63 107 73 19 9 49 25 68 35 32 16 43
27 27 27 -5 0 -41 -18 -80 -40z"/>
<path d="M1641 2593 c-6 -43 -14 -93 -18 -110 -9 -55 13 -37 25 20 13 59 32
156 32 162 0 3 -6 5 -13 5 -10 0 -18 -25 -26 -77z"/>
<path d="M1316 2652 c-2 -4 0 -27 4 -52 5 -25 9 -71 10 -102 0 -44 5 -63 20
-78 11 -11 25 -20 30 -20 15 0 12 18 -5 28 -12 6 -17 32 -21 98 -3 49 -7 99
-10 112 -4 22 -18 29 -28 14z"/>
<path d="M1690 2608 c0 -36 4 -35 14 5 4 16 2 27 -4 27 -5 0 -10 -14 -10 -32z"/>
<path d="M922 2613 c2 -4 13 -28 24 -53 12 -25 30 -65 40 -90 18 -44 52 -89
67 -90 12 0 8 19 -10 40 -9 10 -33 59 -53 107 -24 58 -43 89 -55 91 -9 2 -16
0 -13 -5z"/>
<path d="M1678 2537 c-3 -19 -2 -25 4 -19 6 6 8 18 6 28 -3 14 -5 12 -10 -9z"/>
<path d="M1994 2528 c-5 -7 -24 -42 -42 -78 -19 -36 -41 -72 -48 -81 -18 -20
-18 -29 0 -29 7 0 33 38 57 85 40 78 59 101 59 75 0 -13 -68 -139 -86 -161
-16 -18 -18 -29 -5 -29 6 0 35 44 65 98 40 71 51 98 40 100 -8 2 -14 10 -14
18 0 17 -16 18 -26 2z"/>
<path d="M2498 2533 c7 -3 16 -2 19 1 4 3 -2 6 -13 5 -11 0 -14 -3 -6 -6z"/>
<path d="M558 2412 c-76 -77 -198 -240 -198 -264 0 -5 -6 -16 -14 -23 -12 -12
-74 -151 -81 -180 -1 -5 -5 -18 -10 -28 -4 -10 -5 -20 -3 -23 5 -5 33 61 38
91 3 17 129 245 144 261 6 7 22 27 36 46 13 18 60 70 104 115 44 46 77 85 75
88 -3 2 -44 -35 -91 -83z"/>
<path d="M1499 2478 c-12 -23 -22 -228 -12 -228 6 0 13 26 16 58 4 31 9 83 13
115 5 40 3 57 -5 57 -6 0 -12 -1 -12 -2z"/>
<path d="M1653 2455 c-7 -16 -8 -27 -1 -31 14 -9 20 1 16 30 l-3 26 -12 -25z"/>
<path d="M1530 2435 c0 -8 5 -15 10 -15 6 0 10 7 10 15 0 8 -4 15 -10 15 -5 0
-10 -7 -10 -15z"/>
<path d="M1170 2431 c0 -6 4 -12 9 -16 5 -3 13 -30 16 -60 4 -31 11 -58 16
-61 5 -3 9 -17 9 -31 0 -23 35 -72 53 -73 13 0 7 28 -7 33 -8 3 -17 21 -21 39
-4 18 -11 47 -16 63 -5 17 -14 49 -19 73 -7 25 -16 42 -25 42 -8 0 -15 -4 -15
-9z"/>
<path d="M1763 2428 c-6 -10 -72 -196 -73 -205 0 -2 6 -3 13 -3 6 0 21 28 31
63 10 34 22 67 27 72 9 13 23 85 16 85 -3 0 -9 -6 -14 -12z"/>
<path d="M2612 2410 c0 -14 2 -19 5 -12 2 6 2 18 0 25 -3 6 -5 1 -5 -13z"/>
<path d="M1797 2403 c-2 -4 -10 -26 -16 -48 -14 -45 -27 -78 -47 -118 -16 -34
-18 -47 -4 -47 5 0 13 12 16 28 4 15 10 32 14 37 12 17 52 146 47 151 -3 3 -7
2 -10 -3z"/>
<path d="M590 2385 c0 -7 132 -158 165 -188 31 -29 29 -1 -3 35 -16 18 -53 60
-83 93 -48 54 -79 78 -79 60z"/>
<path d="M2277 2287 c-79 -73 -89 -87 -62 -87 8 0 15 -7 15 -15 0 -23 14 -18
47 18 16 17 51 51 76 75 42 38 46 45 35 62 -7 11 -17 20 -23 20 -5 0 -45 -33
-88 -73z m103 44 c0 -13 -140 -134 -148 -127 -6 7 126 135 141 136 4 0 7 -4 7
-9z"/>
<path d="M1601 2313 c-15 -53 -14 -74 7 -89 25 -20 32 -17 32 13 0 26 -1 26
-16 7 -17 -21 -17 -28 2 74 9 46 -12 41 -25 -5z"/>
<path d="M1060 2320 c0 -6 4 -18 10 -28 5 -9 20 -42 34 -72 22 -51 51 -89 60
-79 7 7 -84 189 -94 189 -6 0 -10 -5 -10 -10z"/>
<path d="M1358 2283 c5 -43 26 -83 44 -83 14 0 9 31 -7 46 -8 9 -15 31 -15 50
0 22 -5 34 -14 34 -10 0 -12 -11 -8 -47z"/>
<path d="M1646 2311 c-4 -7 -5 -15 -2 -18 9 -9 19 4 14 18 -4 11 -6 11 -12 0z"/>
<path d="M890 2299 c0 -13 98 -169 121 -191 20 -20 39 -24 39 -8 0 5 -6 13
-14 17 -7 4 -39 50 -71 101 -52 84 -75 109 -75 81z"/>
<path d="M1521 2290 c0 -15 -7 -32 -13 -38 -10 -10 -10 -15 2 -22 12 -7 16 -4
18 15 2 14 1 35 -1 48 -4 20 -4 20 -6 -3z"/>
<path d="M1987 2205 c-37 -47 -67 -90 -67 -95 0 -22 19 -7 62 53 26 34 56 73
68 85 14 15 19 27 13 33 -6 6 -35 -24 -76 -76z"/>
<path d="M2670 2266 c0 -4 7 -14 15 -22 8 -9 15 -11 15 -6 0 5 -7 15 -15 22
-8 7 -15 9 -15 6z"/>
<path d="M2055 2224 c-16 -21 -47 -60 -68 -86 -21 -26 -37 -53 -35 -58 2 -6
34 28 71 75 38 48 66 92 64 98 -2 6 -16 -7 -32 -29z"/>
<path d="M1837 2220 c-6 -16 -15 -30 -19 -30 -4 0 -8 -7 -8 -15 0 -26 17 -17
39 21 23 39 26 54 10 54 -6 0 -16 -13 -22 -30z"/>
<path d="M1862 2184 c-14 -21 -20 -40 -15 -45 5 -5 18 10 31 36 26 54 16 59
-16 9z"/>
<path d="M820 2139 c0 -6 24 -35 53 -66 28 -30 54 -59 55 -64 2 -5 10 -9 19
-9 21 0 16 8 -52 83 -59 66 -75 78 -75 56z"/>
<path d="M1682 2141 c-17 -10 -12 -83 6 -89 8 -2 12 11 12 47 0 28 -1 51 -2
51 -2 0 -9 -4 -16 -9z"/>
<path d="M1726 2135 c-15 -16 -11 -49 5 -40 4 3 6 12 2 20 -3 8 0 15 6 15 15
0 14 -16 -4 -50 -9 -17 -12 -30 -7 -30 17 0 41 26 47 52 9 35 -25 57 -49 33z"/>
<path d="M1362 2115 c-16 -21 -19 -32 -12 -56 5 -17 14 -37 21 -45 10 -12 1
-14 -57 -14 -75 0 -140 20 -192 58 -37 27 -55 23 -28 -7 34 -38 127 -73 207
-78 51 -4 78 -2 83 6 5 8 15 7 36 -4 37 -19 81 -19 207 0 101 15 182 10 205
-13 13 -13 13 -33 -1 -165 -12 -129 -7 -165 25 -173 12 -3 28 -3 34 1 16 10
30 52 35 105 10 101 17 140 30 150 16 13 20 -6 29 -124 4 -44 11 -75 22 -88
10 -10 15 -20 12 -23 -10 -10 -30 24 -43 72 -12 43 -16 43 -18 1 0 -7 3 -29 7
-49 9 -42 45 -66 75 -49 19 9 51 77 51 105 0 8 8 15 18 15 10 0 27 7 38 15 28
21 34 19 34 -13 0 -59 57 -94 94 -57 28 28 79 146 68 157 -7 7 -23 -15 -48
-66 -21 -42 -43 -76 -50 -76 -6 0 -14 21 -18 47 -5 39 -3 50 14 68 28 29 42
82 29 106 -27 52 -99 -10 -99 -85 0 -25 -7 -40 -26 -55 -15 -11 -30 -19 -34
-16 -4 2 -4 26 0 52 4 26 4 56 -1 66 -13 23 -56 22 -69 -2 -15 -30 -12 -97 6
-116 12 -12 14 -23 7 -53 -10 -42 -41 -58 -41 -20 1 13 -3 69 -7 126 l-8 103
-31 -3 c-29 -3 -31 -6 -49 -78 -11 -41 -21 -90 -24 -107 -3 -19 -11 -33 -19
-33 -8 0 -14 -5 -14 -11 0 -6 7 -9 15 -5 19 7 19 -8 0 -24 -26 -21 -28 -4 -11
77 44 200 43 227 -5 267 -28 23 -39 26 -115 26 -47 0 -94 -5 -105 -10 -20 -11
-186 -29 -194 -21 -3 2 1 11 9 20 25 30 27 67 5 95 -27 35 -70 35 -97 1z m76
-17 c17 -17 15 -42 -6 -68 l-19 -23 -16 24 c-17 24 -22 60 -10 72 10 11 38 8
51 -5z m812 -217 c0 -11 -11 -32 -25 -47 -14 -15 -25 -33 -25 -40 0 -8 -4 -14
-10 -14 -10 0 -5 18 17 60 7 14 13 33 13 43 0 9 7 17 15 17 8 0 15 -9 15 -19z
m-170 -57 c0 -32 -4 -44 -12 -42 -16 6 -22 32 -14 64 10 40 26 27 26 -22z"/>
<path d="M1530 2125 c0 -9 6 -12 15 -9 8 4 15 2 15 -4 0 -5 -7 -15 -15 -22
-22 -18 -18 -48 6 -55 25 -8 39 3 19 15 -12 7 -12 13 -1 34 8 13 11 32 8 40
-8 20 -47 21 -47 1z"/>
<path d="M1612 2128 c-14 -14 -16 -74 -3 -82 17 -11 41 6 40 28 -1 16 -2 17
-6 4 -7 -26 -25 -22 -21 5 2 12 9 21 17 19 15 -3 11 30 -4 35 -6 2 -16 -2 -23
-9z"/>
<path d="M2065 2072 c-40 -39 -63 -68 -56 -70 7 -2 39 22 72 54 32 32 62 54
66 50 8 -8 -92 -106 -108 -106 -5 0 -9 -7 -9 -16 0 -9 4 -14 9 -12 11 4 131
117 131 124 0 2 -8 12 -19 23 -18 18 -20 16 -86 -47z"/>
<path d="M1491 2034 c0 -11 3 -14 6 -6 3 7 2 16 -1 19 -3 4 -6 -2 -5 -13z"/>
<path d="M163 1965 c-6 -15 -7 -27 -2 -31 5 -3 8 -2 7 3 -1 4 3 18 10 31 7 12
9 22 5 22 -4 0 -13 -11 -20 -25z"/>
<path d="M2711 1974 c0 -11 3 -14 6 -6 3 7 2 16 -1 19 -3 4 -6 -2 -5 -13z"/>
<path d="M577 1931 c-3 -11 -3 -22 0 -25 9 -9 33 6 33 20 0 16 18 18 40 4 12
-8 11 -10 -8 -10 -22 0 -23 -2 -20 -87 3 -85 4 -88 26 -85 23 3 31 -13 10 -21
-7 -3 -3 -6 10 -6 22 -1 31 22 12 34 -5 3 -10 35 -10 71 0 50 -3 64 -15 64 -8
0 -15 5 -15 10 0 6 13 10 29 10 24 0 41 14 41 36 0 2 -29 4 -64 4 -55 0 -64
-3 -69 -19z m81 -151 c0 -9 -3 -7 -8 5 -5 11 -8 29 -8 40 0 16 2 15 8 -5 4
-14 8 -32 8 -40z"/>
<path d="M738 1933 c-79 -50 -49 -183 42 -183 44 0 69 17 94 64 19 36 19 37
-1 74 -34 60 -84 77 -135 45z m7 -33 c-10 -11 -20 -18 -23 -15 -7 6 18 35 31
35 5 0 2 -9 -8 -20z m97 1 c34 -40 32 -76 -8 -115 -16 -16 -70 -21 -90 -8 -21
14 -43 68 -33 83 6 10 9 8 9 -12 0 -41 32 -71 71 -67 58 5 77 78 33 122 -8 9
-12 16 -7 16 5 0 16 -9 25 -19z m-30 -8 c26 -24 24 -77 -4 -89 -34 -15 -55 -7
-68 27 -11 27 -10 32 10 54 28 29 37 31 62 8z"/>
<path d="M765 1869 c-11 -17 1 -21 15 -4 8 9 8 15 2 15 -6 0 -14 -5 -17 -11z"/>
<path d="M914 1927 c-26 -22 -26 -25 -13 -62 11 -30 11 -39 2 -42 -7 -3 -13
-13 -13 -22 0 -20 -49 -62 -84 -73 -18 -5 -17 -6 7 -7 19 -1 38 9 59 29 26 26
31 28 44 16 23 -23 49 -27 90 -14 26 9 43 23 52 41 13 26 12 31 -7 48 -28 26
-67 25 -74 -2 -5 -18 -2 -20 19 -15 17 5 24 2 24 -8 0 -7 -10 -16 -22 -20 -32
-8 -33 -8 -56 13 -29 24 -28 52 4 82 25 23 26 23 55 6 17 -9 39 -17 50 -17 18
0 19 2 5 29 -9 16 -23 31 -31 35 -35 13 -84 6 -111 -17z m81 3 c3 -6 -4 -10
-18 -10 -13 0 -33 -9 -45 -20 -12 -12 -22 -17 -22 -13 1 31 71 66 85 43z m40
-21 c11 -16 1 -19 -13 -3 -7 8 -8 14 -3 14 5 0 13 -5 16 -11z m-4 -122 c-35
-35 -121 -19 -121 21 0 12 4 11 16 -6 11 -16 25 -22 54 -22 34 0 41 4 46 26 5
19 9 22 15 12 5 -8 2 -20 -10 -31z"/>
<path d="M1110 1940 c0 -5 -7 -10 -15 -10 -12 0 -15 -15 -15 -74 0 -41 -3 -81
-6 -89 -4 -11 7 -16 50 -21 31 -4 56 -12 56 -17 0 -5 10 -9 23 -9 20 1 21 2 5
14 -10 7 -18 19 -18 25 0 8 -12 11 -32 9 -30 -3 -33 -1 -35 30 -3 30 0 32 27
32 30 0 41 -14 18 -23 -7 -3 -1 -6 15 -6 15 -1 27 4 27 10 0 21 -30 40 -58 37
-18 -2 -27 2 -28 12 -1 8 -2 21 -3 29 0 8 -4 11 -8 8 -3 -4 -6 -37 -5 -75 1
-48 -1 -60 -7 -41 -5 15 -8 48 -7 75 l2 49 39 3 c28 3 43 -1 52 -14 7 -10 16
-14 20 -11 4 4 1 13 -5 19 -7 7 -12 20 -12 30 0 14 -8 18 -40 18 -22 0 -40 -4
-40 -10z"/>
<path d="M1348 1919 c-5 -35 0 -49 18 -42 8 3 14 0 14 -6 0 -6 18 -11 41 -11
23 0 38 -4 34 -10 -3 -5 -26 -8 -51 -6 -49 4 -49 3 -58 -56 -5 -37 -4 -38 25
-38 32 0 40 -16 12 -23 -11 -3 -7 -5 10 -6 30 -1 38 23 11 33 -11 4 -14 13
-10 31 5 21 3 25 -14 25 -12 0 -18 5 -15 10 3 6 24 10 46 10 39 0 39 0 39 -40
0 -33 3 -40 19 -40 11 0 22 -8 24 -17 3 -10 5 33 6 95 1 74 -2 111 -9 107 -6
-4 -9 -39 -8 -81 1 -40 -2 -77 -5 -81 -4 -3 -7 33 -7 80 0 55 -4 87 -11 87 -6
0 -9 -14 -7 -32 3 -28 0 -32 -19 -31 -41 2 -43 3 -43 23 0 11 6 18 13 16 6 -1
9 -1 5 1 -5 3 -8 11 -8 19 0 8 -9 13 -24 12 -18 -2 -25 -9 -28 -29z m27 -8 c3
-5 1 -12 -5 -16 -5 -3 -10 1 -10 9 0 18 6 21 15 7z m-8 -133 c-3 -8 -6 -5 -6
6 -1 11 2 17 5 13 3 -3 4 -12 1 -19z"/>
<path d="M1658 1931 c-14 -14 -18 -35 -18 -99 0 -77 1 -82 21 -82 15 0 19 -5
15 -15 -4 -10 1 -15 14 -15 20 0 28 16 11 22 -13 4 -25 58 -14 58 5 0 15 -11
23 -24 13 -26 46 -40 56 -25 3 6 -6 25 -21 44 l-26 35 21 28 c23 31 19 58 -11
67 -10 4 -19 11 -19 16 0 15 -34 9 -52 -10z m70 -48 c3 -19 -1 -23 -22 -23
-18 0 -24 4 -20 14 3 8 1 17 -5 21 -7 4 -11 -4 -11 -19 0 -15 8 -30 19 -35 20
-11 36 -41 21 -41 -5 0 -17 8 -26 18 -14 13 -17 13 -12 2 3 -8 2 -24 -3 -35
-5 -13 -8 6 -8 53 l-1 73 33 -3 c24 -2 33 -8 35 -25z"/>
<path d="M1200 1930 c0 -5 9 -10 20 -10 11 0 20 5 20 10 0 6 -9 10 -20 10 -11
0 -20 -4 -20 -10z"/>
<path d="M1250 1840 l0 -100 28 5 c26 6 26 6 8 -9 -19 -15 -19 -16 7 -16 29 0
34 9 15 28 -6 6 -11 41 -11 82 0 52 -3 70 -13 70 -8 0 -14 5 -14 10 0 6 14 10
30 10 17 0 30 5 30 10 0 6 -18 10 -40 10 l-40 0 0 -100z m27 13 c-3 -10 -5 -4
-5 12 0 17 2 24 5 18 2 -7 2 -21 0 -30z m0 -45 c-3 -8 -6 -5 -6 6 -1 11 2 17
5 13 3 -3 4 -12 1 -19z"/>
<path d="M1527 1933 c-4 -3 -7 -47 -7 -97 0 -61 3 -86 10 -76 7 12 12 12 22 2
18 -18 68 -16 68 4 0 11 -8 15 -27 12 -25 -3 -28 1 -31 30 -3 30 -1 32 27 32
17 0 31 5 31 10 0 6 -13 10 -30 10 -26 0 -30 4 -30 27 0 14 -3 23 -7 20 -3 -4
-5 -34 -4 -67 1 -38 -2 -60 -8 -60 -7 0 -11 27 -11 70 l0 70 50 0 c28 0 50 5
50 10 0 11 -93 14 -103 3z"/>
<path d="M146 1911 c-8 -12 -25 -94 -31 -146 -3 -24 2 -13 11 25 8 36 19 78
24 94 10 30 7 46 -4 27z"/>
<path d="M950 1865 c-7 -9 -11 -17 -9 -20 3 -2 10 5 17 15 14 24 10 26 -8 5z"/>
<path d="M238 1864 c-6 -8 -15 -50 -21 -94 -2 -8 -5 -20 -9 -25 -10 -16 -13
-103 -4 -112 4 -4 6 -3 5 2 -4 15 21 156 33 187 10 27 7 61 -4 42z"/>
<path d="M1762 1849 c-7 -11 -11 -24 -8 -27 10 -9 28 15 24 32 -2 14 -5 13
-16 -5z"/>
<path d="M2271 1819 c-13 -17 -20 -33 -17 -37 7 -7 33 26 39 51 7 23 4 22 -22
-14z"/>
<path d="M2347 1777 c-9 -23 -17 -46 -17 -51 0 -4 -10 -22 -22 -38 -13 -19
-16 -29 -8 -26 16 5 21 14 51 83 12 28 23 53 25 57 3 4 1 9 -4 11 -4 3 -15
-13 -25 -36z"/>
<path d="M1786 1764 c-3 -9 -6 -23 -6 -32 0 -21 15 -5 25 26 7 25 -9 31 -19 6z"/>
<path d="M1035 1740 c-3 -5 -16 -10 -28 -11 -12 0 -16 -3 -9 -6 18 -7 62 5 62
17 0 13 -17 13 -25 0z"/>
<path d="M1515 1730 c-3 -5 -1 -10 4 -10 6 0 11 5 11 10 0 6 -2 10 -4 10 -3 0
-8 -4 -11 -10z"/>
<path d="M2140 1719 c0 -5 5 -7 10 -4 6 3 10 8 10 11 0 2 -4 4 -10 4 -5 0 -10
-5 -10 -11z"/>
<path d="M100 1665 c0 -32 2 -56 4 -54 8 8 10 98 3 105 -4 4 -7 -19 -7 -51z"/>
<path d="M2110 1697 c0 -7 -9 -30 -21 -51 -13 -25 -16 -37 -7 -34 16 6 52 98
38 98 -6 0 -10 -6 -10 -13z"/>
<path d="M904 1659 c-2 -3 -3 -137 -3 -296 l0 -291 32 3 32 2 3 100 c3 98 2
101 -23 117 -14 9 -25 23 -25 31 0 21 9 19 31 -7 18 -23 18 -21 19 137 l0 160
67 -3 68 -3 0 -95 0 -94 -47 0 c-27 0 -48 -2 -48 -4 0 -13 84 -253 91 -260 5
-6 9 -22 9 -36 0 -35 17 -50 51 -43 18 3 29 1 29 -6 0 -6 -7 -11 -15 -11 -8 0
-15 -4 -15 -8 0 -10 36 -9 47 1 3 4 -3 17 -14 30 -11 12 -35 69 -53 127 -17
58 -36 113 -41 122 -15 29 -10 38 21 38 19 0 33 7 40 19 15 29 13 233 -2 254
-11 13 -36 17 -131 19 -66 2 -121 0 -123 -3z m236 -145 c0 -112 0 -114 -22
-114 -21 1 -21 2 -5 11 24 14 25 183 1 210 -15 16 -14 17 5 12 20 -5 21 -12
21 -119z m-188 103 c-7 -8 -13 -67 -15 -138 l-3 -124 -2 138 c-2 121 0 137 14
137 12 0 14 -3 6 -13z m124 -259 c0 -18 3 -46 7 -63 4 -16 -1 -7 -13 20 -23
58 -25 75 -7 75 9 0 13 -12 13 -32z m-139 -215 c-2 -27 -3 -5 -3 47 0 52 1 74
3 48 2 -27 2 -69 0 -95z m167 101 c3 -8 2 -12 -4 -9 -6 3 -10 10 -10 16 0 14
7 11 14 -7z m13 -56 c-3 -8 -6 -5 -6 6 -1 11 2 17 5 13 3 -3 4 -12 1 -19z m38
-86 c-6 -7 -35 18 -35 31 0 5 9 2 20 -8 11 -10 18 -20 15 -23z"/>
<path d="M1250 1534 l0 -131 -25 5 c-14 2 -25 0 -25 -4 1 -15 26 -44 39 -44 8
0 11 -43 11 -142 l0 -143 100 0 100 0 0 27 0 27 -70 -5 -70 -5 0 120 0 121 70
0 c69 0 70 0 70 26 0 26 -1 26 -67 22 l-68 -3 -3 103 -3 102 71 0 c70 0 70 0
70 28 l0 27 -100 0 -100 0 0 -131z m52 84 c-7 -7 -13 -23 -13 -37 -1 -20 -3
-18 -8 9 -5 26 -2 37 9 41 20 9 26 1 12 -13z m-13 -110 c-1 -39 -2 -41 -8 -13
-4 17 -5 36 -3 43 8 23 12 12 11 -30z m8 -95 c10 -31 9 -41 -3 -53 -12 -12
-16 -12 -30 2 -15 14 -15 18 1 41 9 15 14 31 10 37 -3 5 -3 10 2 10 4 0 13
-17 20 -37z m-7 -93 c0 -5 -5 -10 -11 -10 -5 0 -7 5 -4 10 3 6 8 10 11 10 2 0
4 -4 4 -10z m-3 -82 c-3 -8 -6 -5 -6 6 -1 11 2 17 5 13 3 -3 4 -12 1 -19z m3
-44 c0 -8 -5 -12 -10 -9 -6 4 -8 11 -5 16 9 14 15 11 15 -7z m-3 -46 c-3 -8
-6 -5 -6 6 -1 11 2 17 5 13 3 -3 4 -12 1 -19z m23 -46 c-17 -6 -42 7 -35 18 4
6 13 5 26 -3 10 -6 15 -13 9 -15z"/>
<path d="M592 1647 c-12 -15 -11 -551 1 -563 9 -9 230 -5 239 4 3 4 8 54 9
112 l3 104 -32 2 -32 2 0 -92 0 -92 -65 0 -65 0 -1 203 c0 112 -1 218 -1 236
-1 19 1 38 4 43 3 5 33 7 67 6 l61 -4 0 -67 0 -68 30 0 c17 0 30 3 30 6 4 55
2 160 -4 169 -11 18 -230 16 -244 -1z m40 -29 c-15 -15 -17 -484 -2 -493 15
-9 12 -25 -5 -25 -13 0 -15 36 -15 265 0 243 1 265 17 265 13 0 14 -3 5 -12z
m188 -40 c0 -61 -7 -59 -19 5 -7 37 -6 47 5 47 10 0 14 -15 14 -52z m0 -68 c0
-5 -2 -10 -4 -10 -3 0 -8 5 -11 10 -3 6 -1 10 4 10 6 0 11 -4 11 -10z m-4
-397 c-3 -7 -13 -13 -22 -13 -16 0 -16 2 -1 18 11 12 16 37 16 82 0 94 4 98 8
6 2 -44 2 -85 -1 -93z"/>
<path d="M1510 1641 c-6 -12 -10 -124 -10 -295 l0 -276 31 4 32 3 -2 105 -2
105 72 -2 73 -1 -3 -107 -3 -107 32 3 32 4 3 279 c3 185 0 283 -7 291 -7 9
-44 13 -124 13 -102 0 -114 -2 -124 -19z m54 -43 c16 -11 36 -10 36 2 0 6 -7
10 -15 10 -8 0 -15 5 -15 10 0 6 7 10 15 10 8 0 15 -4 15 -10 0 -5 11 -10 25
-10 14 0 25 5 25 10 0 17 20 11 27 -7 7 -19 22 -33 38 -33 5 0 4 5 -3 12 -19
19 -14 38 9 38 17 0 19 -3 10 -13 -8 -10 -7 -17 1 -25 9 -9 9 -15 1 -23 -9 -9
-8 -15 3 -26 18 -19 8 -36 -17 -28 -11 4 -19 2 -19 -4 0 -6 9 -11 20 -11 15 0
20 -7 20 -24 0 -32 -20 -44 -27 -17 -6 25 -18 27 -27 6 -3 -8 -1 -15 4 -15 6
0 10 -7 10 -15 0 -8 7 -15 15 -15 8 0 15 -6 16 -12 0 -7 3 -39 5 -70 5 -54 -6
-78 -20 -43 -3 8 -12 15 -21 15 -19 0 -19 14 -1 29 8 6 16 21 19 31 9 33 -19
23 -42 -15 -11 -19 -27 -35 -35 -35 -20 0 -50 46 -43 64 4 10 -4 18 -24 25
-16 5 -29 17 -29 25 0 9 -5 16 -11 16 -5 0 -7 5 -3 12 11 17 12 61 2 74 -5 8
-1 13 12 17 18 5 19 7 5 33 -7 15 -11 32 -8 38 4 6 9 4 11 -4 3 -8 10 -18 16
-22z m9 -244 c-3 -7 0 -15 6 -19 18 -10 13 -25 -9 -25 -19 0 -22 -9 -34 -95
-2 -16 -3 15 -3 70 0 55 2 103 4 107 6 11 40 -26 36 -38z m-36 -236 c-2 -13
-4 -3 -4 22 0 25 2 35 4 23 2 -13 2 -33 0 -45z"/>
<path d="M1590 1570 c0 -5 7 -10 15 -10 8 0 15 -5 15 -12 0 -9 3 -9 12 0 10
10 10 15 -2 22 -20 13 -40 13 -40 0z"/>
<path d="M1670 1535 c-10 -12 -10 -15 4 -15 9 0 16 5 16 11 0 5 5 7 10 4 6 -3
10 -1 10 4 0 16 -26 13 -40 -4z"/>
<path d="M1574 1517 c-6 -7 -14 -26 -17 -42 -3 -17 -4 -24 -1 -17 3 6 12 12
21 12 10 0 12 -6 8 -21 -6 -18 -4 -19 13 -10 11 6 22 18 26 27 4 10 13 14 26
11 13 -3 20 0 20 9 0 8 -7 14 -15 14 -8 0 -15 7 -15 15 0 8 -5 15 -11 15 -7 0
-9 -10 -5 -25 5 -20 3 -25 -13 -25 -28 0 -37 21 -16 37 14 9 15 13 4 13 -8 -1
-19 -6 -25 -13z"/>
<path d="M1630 1437 c0 -7 9 -13 20 -14 24 -2 27 12 4 21 -22 8 -24 8 -24 -7z"/>
<path d="M1645 1401 c-3 -5 2 -11 10 -15 8 -3 17 -1 20 3 3 5 -2 11 -10 15 -8
3 -17 1 -20 -3z"/>
<path d="M1610 1389 c0 -5 5 -7 10 -4 6 3 10 8 10 11 0 2 -4 4 -10 4 -5 0 -10
-5 -10 -11z"/>
<path d="M1926 1634 c-4 -9 -4 -19 -1 -22 2 -3 7 3 11 12 4 9 4 19 1 22 -2 3
-7 -3 -11 -12z"/>
<path d="M2130 1523 l0 -113 -35 0 c-36 0 -42 -9 -25 -39 6 -13 17 -17 35 -13
l26 5 -2 -143 -1 -142 101 -2 101 -1 0 29 0 29 -70 -6 -70 -5 0 119 0 119 71
0 c59 0 70 -3 65 -15 -3 -9 0 -15 9 -15 8 0 15 7 15 15 0 8 -4 15 -10 15 -5 0
-10 11 -10 25 0 24 -2 25 -70 25 l-70 0 0 85 0 85 70 0 c70 0 70 0 70 28 l0
27 -100 0 -100 0 0 -112z m55 77 c3 -5 1 -10 -4 -10 -7 0 -11 -34 -11 -94 0
-78 3 -95 16 -100 16 -6 16 -8 0 -24 -25 -28 -24 -239 2 -258 16 -12 15 -13
-8 -14 l-25 0 -1 125 c-1 81 -5 130 -13 139 -10 11 -9 21 1 43 9 18 14 58 13
108 -1 44 0 83 2 88 6 10 21 9 28 -3z"/>
<path d="M1465 1611 c-3 -12 -17 -22 -33 -24 -21 -3 -19 -4 11 -6 33 -1 37 2
37 24 0 30 -6 32 -15 6z"/>
<path d="M189 1550 c-5 -86 8 -255 21 -285 10 -23 25 -105 21 -120 -1 -5 3 -5
9 2 9 8 9 20 2 45 -26 83 -36 153 -42 288 -5 123 -7 134 -11 70z"/>
<path d="M86 1546 c-6 -56 1 -116 14 -116 7 0 2 159 -5 168 -1 1 -5 -22 -9
-52z"/>
<path d="M1194 1515 c0 -49 1 -71 3 -48 2 23 2 64 0 90 -2 26 -3 8 -3 -42z"/>
<path d="M2343 1581 c-8 -13 -27 -21 -55 -24 -38 -3 -36 -4 15 -5 55 -2 57 -1
57 23 0 30 -2 31 -17 6z"/>
<path d="M718 1583 c7 -3 16 -2 19 1 4 3 -2 6 -13 5 -11 0 -14 -3 -6 -6z"/>
<path d="M1038 1583 c6 -2 18 -2 25 0 6 3 1 5 -13 5 -14 0 -19 -2 -12 -5z"/>
<path d="M1368 1583 c6 -2 18 -2 25 0 6 3 1 5 -13 5 -14 0 -19 -2 -12 -5z"/>
<path d="M1808 1583 c-2 -5 -3 -19 -3 -33 0 -23 4 -25 53 -28 l52 -3 0 -224 0
-224 30 2 30 2 0 223 0 222 55 0 55 0 0 35 0 35 -134 0 c-74 0 -136 -3 -138
-7z m212 -30 c-69 -9 -70 -12 -70 -245 0 -116 -4 -208 -9 -208 -5 0 -9 92 -8
209 0 235 0 237 -69 244 -21 2 13 4 76 4 63 0 99 -2 80 -4z"/>
<path d="M991 1534 c0 -11 3 -14 6 -6 3 7 2 16 -1 19 -3 4 -6 -2 -5 -13z"/>
<path d="M2070 1504 l-25 -14 28 0 c17 0 27 5 27 15 0 8 -1 15 -2 14 -2 -1
-14 -7 -28 -15z"/>
<path d="M992 1470 c0 -19 2 -27 5 -17 2 9 2 25 0 35 -3 9 -5 1 -5 -18z"/>
<path d="M1843 1493 c9 -2 23 -2 30 0 6 3 -1 5 -18 5 -16 0 -22 -2 -12 -5z"/>
<path d="M852 1470 c-10 -17 -10 -20 3 -20 8 0 15 9 15 20 0 11 -1 20 -3 20
-1 0 -8 -9 -15 -20z"/>
<path d="M1791 1464 c0 -11 3 -14 6 -6 3 7 2 16 -1 19 -3 4 -6 -2 -5 -13z"/>
<path d="M1792 1405 c0 -16 2 -22 5 -12 2 9 2 23 0 30 -3 6 -5 -1 -5 -18z"/>
<path d="M90 1410 c0 -5 5 -10 11 -10 5 0 7 5 4 10 -3 6 -8 10 -11 10 -2 0 -4
-4 -4 -10z"/>
<path d="M106 1308 c3 -49 11 -105 19 -125 l15 -38 -5 35 c-27 191 -34 224
-29 128z"/>
<path d="M1162 1359 c-12 -18 -11 -20 5 -17 10 2 19 11 21 21 5 23 -10 21 -26
-4z"/>
<path d="M1450 1345 c-10 -12 -10 -15 4 -15 9 0 16 7 16 15 0 8 -2 15 -4 15
-2 0 -9 -7 -16 -15z"/>
<path d="M1793 1290 c0 -36 2 -50 4 -32 2 17 2 47 0 65 -2 17 -4 3 -4 -33z"/>
<path d="M993 1295 c0 -22 2 -30 4 -17 2 12 2 30 0 40 -3 9 -5 -1 -4 -23z"/>
<path d="M2771 1274 c0 -11 3 -14 6 -6 3 7 2 16 -1 19 -3 4 -6 -2 -5 -13z"/>
<path d="M1618 1253 c12 -2 32 -2 45 0 12 2 2 4 -23 4 -25 0 -35 -2 -22 -4z"/>
<path d="M990 1160 c0 -74 -3 -91 -17 -99 -16 -9 -16 -10 5 -11 21 0 22 3 22
100 0 55 -2 100 -5 100 -3 0 -5 -40 -5 -90z"/>
<path d="M1792 1141 c-1 -33 -8 -61 -18 -72 -16 -18 -6 -33 14 -20 9 5 12 29
9 77 -3 63 -3 65 -5 15z"/>
<path d="M140 1130 c0 -16 82 -235 90 -240 4 -3 11 -16 15 -30 4 -14 25 -51
46 -83 22 -32 39 -62 39 -66 0 -5 7 -14 15 -21 8 -7 15 -9 15 -5 0 8 -59 105
-70 115 -14 13 -91 185 -115 258 -25 76 -35 97 -35 72z"/>
<path d="M251 1118 c-1 -15 4 -30 9 -33 6 -3 10 -14 10 -25 0 -21 108 -237
139 -276 31 -40 26 -19 -13 45 -63 106 -108 202 -136 291 l-8 25 -1 -27z"/>
<path d="M860 1096 c0 -8 -10 -22 -22 -30 -26 -19 -21 -27 10 -15 15 6 22 17
22 34 0 14 -2 25 -5 25 -3 0 -5 -6 -5 -14z"/>
<path d="M1462 1070 c-15 -25 -15 -27 3 -27 9 0 15 10 15 24 0 28 -2 28 -18 3z"/>
<path d="M2338 1071 c-11 -13 -13 -23 -7 -27 15 -9 32 10 27 30 -3 15 -5 14
-20 -3z"/>
<path d="M1571 1066 c-9 -10 -9 -16 -1 -21 17 -10 37 12 24 25 -8 8 -15 6 -23
-4z"/>
<path d="M1982 1068 c-16 -16 -15 -28 3 -28 8 0 15 9 15 20 0 23 -2 24 -18 8z"/>
<path d="M595 1008 c-8 -24 0 -81 12 -85 6 -2 17 6 23 18 11 19 10 21 -4 16
-13 -5 -14 -3 -4 12 12 20 5 51 -12 51 -6 0 -13 -6 -15 -12z"/>
<path d="M717 1008 c-2 -7 0 -21 5 -32 7 -12 7 -21 0 -25 -7 -4 -8 -12 -1 -21
14 -23 28 6 25 49 -4 36 -20 53 -29 29z"/>
<path d="M874 1006 c-8 -21 0 -79 11 -83 6 -2 10 18 10 47 1 48 -10 65 -21 36z"/>
<path d="M924 1006 c-3 -9 0 -23 7 -32 10 -13 10 -17 -2 -24 -11 -8 -11 -12
-1 -22 18 -18 32 6 28 51 -4 38 -22 53 -32 27z"/>
<path d="M987 1013 c-12 -11 -8 -41 6 -46 9 -4 8 -8 -3 -16 -11 -7 -12 -13 -4
-21 18 -18 41 17 26 40 -7 12 -8 21 -2 25 6 4 8 11 5 16 -7 11 -19 12 -28 2z"/>
<path d="M1070 998 c0 -13 -3 -33 -6 -45 -5 -17 -2 -23 10 -23 9 0 16 8 16 18
0 10 5 23 10 28 14 14 2 44 -16 44 -8 0 -14 -10 -14 -22z"/>
<path d="M1130 985 c0 -19 -1 -38 -2 -42 -2 -3 7 -7 19 -8 19 -1 21 3 18 34
-2 20 -4 39 -4 44 -1 4 -8 7 -16 7 -10 0 -15 -11 -15 -35z"/>
<path d="M1190 970 c0 -28 5 -50 10 -50 15 0 25 31 12 39 -7 4 -8 12 -2 21 14
22 12 40 -5 40 -11 0 -15 -12 -15 -50z"/>
<path d="M1250 975 c0 -25 5 -45 10 -45 6 0 10 20 10 45 0 25 -4 45 -10 45 -5
0 -10 -20 -10 -45z"/>
<path d="M1298 981 c-4 -48 -1 -61 18 -61 17 0 18 12 2 29 -11 11 -10 14 0 18
10 4 10 8 1 19 -8 10 -8 14 0 14 6 0 11 5 11 10 0 6 -6 10 -14 10 -9 0 -15
-14 -18 -39z"/>
<path d="M1354 1005 c-4 -8 0 -22 7 -31 10 -13 10 -17 0 -24 -14 -8 -7 -30 9
-30 15 0 22 40 10 55 -8 9 -8 15 0 20 12 7 4 25 -11 25 -5 0 -12 -7 -15 -15z"/>
<path d="M1415 1008 c-7 -23 0 -83 10 -78 12 6 14 90 3 90 -5 0 -11 -6 -13
-12z"/>
<path d="M1507 1014 c-11 -12 -8 -82 4 -90 17 -10 30 17 27 55 -3 33 -17 49
-31 35z m20 -56 c-3 -7 -5 -2 -5 12 0 14 2 19 5 13 2 -7 2 -19 0 -25z"/>
<path d="M1628 980 c-3 -32 0 -40 11 -38 9 2 15 14 14 31 -2 43 -3 47 -12 47
-5 0 -11 -18 -13 -40z"/>
<path d="M1734 1005 c-4 -8 0 -22 7 -31 10 -13 10 -17 -2 -24 -10 -7 -11 -12
-2 -21 6 -6 16 -8 22 -5 14 9 14 43 1 51 -8 5 -8 11 -1 19 11 13 5 26 -11 26
-5 0 -11 -7 -14 -15z"/>
<path d="M1821 1006 c-10 -12 -10 -23 -1 -51 16 -48 35 -39 35 15 0 46 -14 60
-34 36z m16 -48 c-3 -7 -5 -2 -5 12 0 14 2 19 5 13 2 -7 2 -19 0 -25z"/>
<path d="M1887 1013 c-11 -10 -8 -83 3 -83 9 0 11 7 15 50 0 8 4 21 8 28 9 13
-14 18 -26 5z"/>
<path d="M1976 1008 c-3 -7 -6 -25 -9 -40 -3 -23 -1 -28 17 -28 19 0 21 5 18
35 -4 37 -19 56 -26 33z"/>
<path d="M2032 980 c2 -36 7 -45 22 -45 15 0 20 9 23 43 2 25 0 42 -6 42 -6 0
-12 -15 -12 -32 -2 -28 -2 -29 -6 -8 -9 47 -24 47 -21 0z"/>
<path d="M2104 1006 c-8 -22 0 -79 12 -83 7 -2 11 14 11 47 -1 48 -12 66 -23
36z"/>
<path d="M2160 975 c0 -33 4 -45 13 -42 7 2 12 20 12 42 0 22 -5 40 -12 43 -9
2 -13 -10 -13 -43z"/>
<path d="M2257 1013 c-11 -10 -8 -81 4 -88 17 -11 24 4 11 25 -9 15 -9 22 4
34 8 9 12 20 9 26 -7 12 -19 13 -28 3z"/>
<path d="M2316 1009 c-10 -30 -13 -68 -5 -64 4 3 10 1 14 -5 14 -22 23 -8 18
28 -6 42 -20 63 -27 41z"/>
<path d="M660 965 c0 -25 5 -45 10 -45 16 0 24 31 10 40 -8 5 -9 9 -1 14 16
10 13 36 -4 36 -11 0 -15 -12 -15 -45z"/>
<path d="M770 969 c0 -22 4 -38 8 -35 8 5 4 76 -4 76 -2 0 -4 -18 -4 -41z"/>
<path d="M815 973 c8 -43 10 -47 22 -40 15 10 2 77 -14 77 -12 0 -14 -8 -8
-37z"/>
<path d="M1463 975 c5 -51 17 -55 17 -7 0 23 -5 42 -10 42 -6 0 -9 -15 -7 -35z"/>
<path d="M1564 988 c3 -13 6 -31 6 -41 0 -35 25 -10 27 26 2 31 -1 37 -19 37
-16 0 -19 -4 -14 -22z"/>
<path d="M1680 971 c0 -34 13 -61 25 -49 7 7 -8 88 -16 88 -5 0 -9 -18 -9 -39z"/>
<path d="M2210 976 c0 -19 5 -38 10 -41 6 -4 10 10 10 34 0 23 -4 41 -10 41
-5 0 -10 -15 -10 -34z"/>
<path d="M974 823 c-31 -43 -62 -81 -68 -85 -8 -5 -8 -10 0 -18 8 -8 27 11 69
67 32 43 62 80 67 81 11 5 10 32 -1 32 -5 0 -35 -35 -67 -77z"/>
<path d="M1950 878 c0 -6 6 -19 13 -27 8 -9 33 -47 56 -84 39 -63 74 -107 86
-107 10 0 5 22 -9 35 -7 8 -39 55 -71 105 -53 84 -75 107 -75 78z"/>
<path d="M1018 807 c-25 -34 -55 -71 -67 -81 -21 -20 -27 -36 -13 -36 8 0 142
165 142 175 0 17 -22 -3 -62 -58z"/>
<path d="M1120 805 c-13 -25 -20 -48 -16 -53 9 -8 36 26 36 45 0 7 5 13 10 13
12 0 13 27 1 34 -4 3 -19 -15 -31 -39z"/>
<path d="M1827 833 c-3 -5 6 -30 19 -58 13 -27 23 -55 24 -62 0 -18 48 -65 61
-61 8 3 7 9 -5 20 -8 9 -31 50 -50 92 -34 75 -40 83 -49 69z"/>
<path d="M1147 770 c-14 -22 -22 -42 -17 -45 8 -5 60 65 60 80 0 16 -20 0 -43
-35z"/>
<path d="M665 720 c-44 -44 -73 -80 -65 -80 15 1 170 140 170 153 0 22 -35 -2
-105 -73z"/>
<path d="M1256 778 c-14 -46 -39 -115 -46 -128 -4 -9 -11 -30 -15 -48 -9 -43
11 -42 24 1 5 17 21 63 35 101 14 38 26 73 26 77 0 14 -20 10 -24 -3z"/>
<path d="M2217 784 c-6 -6 97 -129 153 -182 35 -34 37 -9 2 30 -153 173 -143
163 -155 152z"/>
<path d="M1725 749 c4 -19 10 -47 15 -64 5 -16 14 -49 20 -73 14 -54 60 -106
60 -67 0 8 -4 15 -8 15 -13 0 -30 42 -37 96 -4 27 -11 54 -15 59 -5 6 -10 21
-12 34 -1 14 -9 26 -17 29 -10 3 -12 -3 -6 -29z"/>
<path d="M755 746 c-12 -11 -45 -43 -73 -69 -29 -27 -52 -53 -50 -58 2 -5 41
27 88 71 47 44 78 79 70 79 -8 -1 -24 -11 -35 -23z"/>
<path d="M1349 715 c-12 -54 -8 -78 11 -59 5 5 12 33 16 62 9 71 -11 69 -27
-3z"/>
<path d="M1589 766 c-2 -3 -3 -25 -1 -50 3 -31 9 -46 18 -46 8 0 14 -7 14 -15
0 -8 5 -15 10 -15 15 0 12 29 -5 46 -8 9 -15 31 -15 50 0 30 -8 42 -21 30z"/>
<path d="M460 740 c-12 -8 -10 -10 10 -11 47 -1 62 -8 93 -36 26 -25 28 -26
18 -5 -13 25 -67 62 -91 62 -8 0 -22 -5 -30 -10z"/>
<path d="M1279 708 c-7 -24 -19 -54 -26 -68 -7 -14 -13 -32 -13 -41 0 -9 -7
-22 -15 -29 -8 -7 -12 -16 -9 -21 10 -17 20 -9 31 29 6 20 22 67 37 105 14 37
22 67 18 67 -5 0 -15 -19 -23 -42z"/>
<path d="M1466 688 c-3 -35 -9 -87 -12 -115 -4 -35 -3 -53 4 -53 19 0 22 16
29 124 4 69 2 106 -4 106 -6 0 -13 -28 -17 -62z"/>
<path d="M1390 714 c0 -8 5 -12 10 -9 6 3 10 10 10 16 0 5 -4 9 -10 9 -5 0
-10 -7 -10 -16z"/>
<path d="M1500 700 c0 -5 5 -10 10 -10 6 0 10 5 10 10 0 6 -4 10 -10 10 -5 0
-10 -4 -10 -10z"/>
<path d="M1503 635 c0 -27 2 -38 4 -22 2 15 2 37 0 50 -2 12 -4 0 -4 -28z"/>
<path d="M1053 658 c-6 -7 -27 -47 -49 -88 -21 -41 -42 -76 -46 -78 -11 -5
-10 -32 1 -32 9 0 86 128 96 160 7 21 25 28 25 9 0 -14 -67 -138 -87 -161 -8
-9 -12 -22 -8 -28 4 -7 29 28 61 86 56 100 61 114 44 114 -5 0 -10 7 -10 15 0
18 -14 20 -27 3z"/>
<path d="M1372 653 c-8 -15 -9 -24 -1 -28 15 -10 21 0 17 27 l-3 23 -13 -22z"/>
<path d="M359 645 c-9 -40 4 -78 38 -111 28 -29 41 -34 79 -34 30 0 56 7 74
20 32 23 63 77 50 85 -5 3 -16 -11 -26 -30 -9 -20 -24 -40 -33 -44 -15 -8 -68
-15 -98 -12 -23 2 -63 52 -64 79 0 15 -4 36 -8 47 -8 20 -8 20 -12 0z"/>
<path d="M1943 574 c16 -56 76 -183 95 -204 28 -31 39 -20 15 16 -10 15 -34
66 -53 112 -19 47 -41 87 -49 90 -10 3 -12 -1 -8 -14z"/>
<path d="M1610 566 c0 -2 5 -50 11 -107 10 -98 25 -139 51 -139 12 0 10 28 -4
32 -6 2 -15 47 -21 111 -8 76 -15 107 -24 107 -7 0 -13 -2 -13 -4z"/>
<path d="M1326 528 c-37 -197 -36 -188 -15 -209 25 -25 29 -24 29 9 0 21 -2
24 -10 12 -14 -20 -2 99 15 157 10 34 10 44 0 53 -9 8 -14 2 -19 -22z"/>
<path d="M2355 540 c-3 -5 -1 -10 4 -10 6 0 11 5 11 10 0 6 -2 10 -4 10 -3 0
-8 -4 -11 -10z"/>
<path d="M2501 534 c0 -11 3 -14 6 -6 3 7 2 16 -1 19 -3 4 -6 -2 -5 -13z"/>
<path d="M1480 510 c0 -11 5 -20 10 -20 6 0 10 9 10 20 0 11 -4 20 -10 20 -5
0 -10 -9 -10 -20z"/>
<path d="M1360 498 c0 -19 2 -20 10 -8 13 19 13 30 0 30 -5 0 -10 -10 -10 -22z"/>
<path d="M2465 499 c-11 -16 -1 -19 13 -3 7 8 8 14 3 14 -5 0 -13 -5 -16 -11z"/>
<path d="M1352 410 c0 -19 2 -27 5 -17 2 9 2 25 0 35 -3 9 -5 1 -5 -18z"/>
<path d="M858 363 c6 -2 18 -2 25 0 6 3 1 5 -13 5 -14 0 -19 -2 -12 -5z"/>
<path d="M2110 250 c-9 -6 -10 -10 -3 -10 6 0 15 5 18 10 8 12 4 12 -15 0z"/>
<path d="M1368 203 c6 -2 18 -2 25 0 6 3 1 5 -13 5 -14 0 -19 -2 -12 -5z"/>
<path d="M1758 133 c6 -2 18 -2 25 0 6 3 1 5 -13 5 -14 0 -19 -2 -12 -5z"/>
<path d="M1538 103 c7 -3 16 -2 19 1 4 3 -2 6 -13 5 -11 0 -14 -3 -6 -6z"/>
</g>
</svg>
